<?xml version="1.0" encoding="UTF-8"?>
<svg version="1.1" xmlns="http://www.w3.org/2000/svg" width="192" height="192">
<path d="M0 0 C3.1195572 1.38685223 5.25855799 3.00189491 7.671875 5.40625 C8.33574219 6.06753906 8.99960937 6.72882812 9.68359375 7.41015625 C10.36550781 8.09980469 11.04742187 8.78945313 11.75 9.5 C12.44738281 10.18964844 13.14476562 10.87929688 13.86328125 11.58984375 C14.52199219 12.25113281 15.18070313 12.91242187 15.859375 13.59375 C16.46233398 14.19896484 17.06529297 14.80417969 17.68652344 15.42773438 C19 17 19 17 19 19 C19.66 19 20.32 19 21 19 C22.32048035 20.3380127 22.32048035 20.3380127 23.90307617 22.26757812 C28.81961951 28.04390502 34.19304628 33.35733187 39.55078125 38.71875 C40.65706921 39.82825713 41.76328438 40.93783685 42.86943054 42.04748535 C45.17136359 44.35536467 47.47531154 46.66121043 49.78051758 48.96582031 C52.7391663 51.92436652 55.69082369 54.88978644 58.64085102 57.85692596 C60.9150382 60.14219301 63.1937165 62.42293985 65.47371483 64.70240784 C66.56500994 65.79488488 67.65467954 66.88898815 68.74270058 67.98472595 C70.25518703 69.50695054 71.77380494 71.02277909 73.29418945 72.53710938 C74.15687943 73.40122437 75.0195694 74.26533936 75.90840149 75.15563965 C77.78524376 77.22046205 77.78524376 77.22046205 80 77 C84.12835275 67.04772106 84.20763069 58.44245472 80.12890625 48.4375 C77.2138954 42.14349733 73.34573096 38.23453969 68 34 C69.47721422 30.54798361 71.43794001 28.35038064 74.125 25.75 C74.84945312 25.04359375 75.57390625 24.3371875 76.3203125 23.609375 C76.87460938 23.07828125 77.42890625 22.5471875 78 22 C86.71505103 25.08906774 91.11704167 31.94751816 95 40 C98.39616618 47.29546809 100.39357027 54.0450771 100.375 62.125 C100.37338867 62.86347168 100.37177734 63.60194336 100.37011719 64.36279297 C100.1561275 74.08254032 97.29784931 82.86401713 92 91 C94.64 93.64 97.28 96.28 100 99 C104.00340794 94.99659206 105.77244305 92.02817835 108 87 C108.27972656 86.38125 108.55945313 85.7625 108.84765625 85.125 C115.38746958 69.35057588 113.82182659 52.19513872 107.6875 36.5625 C105.69455318 32.06014149 103.29458163 28.2937826 100.13671875 24.5234375 C99 23 99 23 99 21 C98.34 21 97.68 21 97 21 C95.65576661 19.34211215 94.32381517 17.67423683 93 16 C90.87396815 14.23676495 90.87396815 14.23676495 89 13 C90.46625856 9.65179102 92.33658447 7.30733641 94.875 4.6875 C95.55304688 3.96949219 96.23109375 3.25148437 96.9296875 2.51171875 C99 1 99 1 100.984375 1.015625 C112.07875678 6.43381145 119.11762621 20.36339996 124 31 C124.309375 31.65484375 124.61875 32.3096875 124.9375 32.984375 C132.53776075 50.87665551 131.96046044 73.0720941 125.3125 91.125 C123.42991637 95.39364894 121.19780438 99.48418061 118.9375 103.5625 C118.5969458 104.18334473 118.2563916 104.80418945 117.90551758 105.44384766 C115.35873277 109.88042241 115.35873277 109.88042241 112 111 C112 111.99 112 112.98 112 114 C110.3603279 115.36639342 108.68889872 116.6949419 107 118 C106.319375 118.886875 105.63875 119.77375 104.9375 120.6875 C103 123 103 123 101.0625 124.0625 C97.76086114 123.96245034 96.3420724 122.22496878 94 120 C92.66666667 118.33333333 91.33333333 116.66666667 90 115 C89.236875 114.401875 88.47375 113.80375 87.6875 113.1875 C84.76988625 110.81269811 82.54118002 108.22184943 80.11328125 105.36328125 C77.08492796 101.97667545 73.83542277 98.82407494 70.55615234 95.68139648 C69.33453476 94.49033002 68.16257158 93.24876586 67 92 C67 91.34 67 90.68 67 90 C66.46632813 89.79503906 65.93265625 89.59007812 65.3828125 89.37890625 C62.00062566 87.42167354 59.56962512 84.7403035 56.875 81.9375 C53.30446634 77.9955106 53.30446634 77.9955106 49 75 C48.505 76.485 48.505 76.485 48 78 C47.34 78 46.68 78 46 78 C45.505 79.485 45.505 79.485 45 81 C44.34 81 43.68 81 43 81 C42.505 82.485 42.505 82.485 42 84 C41.34 84 40.68 84 40 84 C39.505 85.485 39.505 85.485 39 87 C38.34 87 37.68 87 37 87 C36.505 88.485 36.505 88.485 36 90 C35.34 90 34.68 90 34 90 C33.505 91.485 33.505 91.485 33 93 C32.34 93 31.68 93 31 93 C30.505 94.485 30.505 94.485 30 96 C29.34 96 28.68 96 28 96 C27.505 97.485 27.505 97.485 27 99 C26.34 99 25.68 99 25 99 C24.505 100.485 24.505 100.485 24 102 C23.01 102.33 22.02 102.66 21 103 C20.01 102.505 20.01 102.505 19 102 C19 101.34 19 100.68 19 100 C18.401875 99.731875 17.80375 99.46375 17.1875 99.1875 C15.00152146 98.00082594 13.58667406 96.90400887 12 95 C12 94.34 12 93.68 12 93 C11.34 93 10.68 93 10 93 C10 92.01 10 91.02 10 90 C9.34 90 8.68 90 8 90 C3.15146163 80.80449619 0.48703971 73.03981745 0.625 62.5625 C0.61339844 61.68529297 0.60179688 60.80808594 0.58984375 59.90429688 C0.62295949 52.4146203 1.79126313 45.3131053 6 39 C10.13639336 40.59092052 13.23213248 43.60474918 16 47 C16 47.66 16 48.32 16 49 C16.66 49 17.32 49 18 49 C19.15420953 52.40766623 18.75533571 54.44745359 17.8125 57.875 C16.31010084 65.13168615 18.59662765 71.19706587 21 78 C25.12444855 74.57758525 29.086568 71.04156707 32.9375 67.3125 C34.09572266 66.19294922 34.09572266 66.19294922 35.27734375 65.05078125 C37.32159604 63.06352958 37.32159604 63.06352958 37 60 C35.515 59.505 35.515 59.505 34 59 C34 58.34 34 57.68 34 57 C33.01 56.67 32.02 56.34 31 56 C31 55.34 31 54.68 31 54 C30.01 53.67 29.02 53.34 28 53 C28 52.34 28 51.68 28 51 C27.01 50.67 26.02 50.34 25 50 C25 49.34 25 48.68 25 48 C24.01 47.67 23.02 47.34 22 47 C22 46.34 22 45.68 22 45 C21.01 44.67 20.02 44.34 19 44 C19 43.34 19 42.68 19 42 C18.01 41.67 17.02 41.34 16 41 C16 40.34 16 39.68 16 39 C15.01 38.67 14.02 38.34 13 38 C13 37.34 13 36.68 13 36 C12.01 35.67 11.02 35.34 10 35 C10 34.34 10 33.68 10 33 C9.01 32.67 8.02 32.34 7 32 C7 31.34 7 30.68 7 30 C6.01 29.67 5.02 29.34 4 29 C4 28.34 4 27.68 4 27 C2.68 26.34 1.36 25.68 0 25 C-10.00698126 38.77365398 -14.03468511 55.41407108 -11.50390625 72.3125 C-9.14645695 83.3938436 -5.38174725 93.32878298 2 102 C2.77923828 102.9590625 2.77923828 102.9590625 3.57421875 103.9375 C6.17919357 107.08709173 8.68904504 109.58045599 12 112 C12 112.66 12 113.32 12 114 C11.34 114 10.68 114 10 114 C9.505 115.485 9.505 115.485 9 117 C8.34 117 7.68 117 7 117 C6.731875 117.598125 6.46375 118.19625 6.1875 118.8125 C5.01506533 120.97224808 3.80630718 122.35790256 2 124 C-2.76560621 122.59835111 -5.95882443 119.84588526 -9 116 C-9 115.34 -9 114.68 -9 114 C-9.66 114 -10.32 114 -11 114 C-25.25668716 95.2070942 -30.9921981 75.45114639 -29 52 C-28.22341656 46.48345909 -26.75188822 41.2787919 -25 36 C-24.66097656 34.95714844 -24.32195313 33.91429687 -23.97265625 32.83984375 C-19.14845029 19.80933726 -10.08494511 9.31248123 0 0 Z " fill="#0F0F20" transform="translate(41,39)"/>
<path d="M0 0 C3.1195572 1.38685223 5.25855799 3.00189491 7.671875 5.40625 C8.33574219 6.06753906 8.99960937 6.72882812 9.68359375 7.41015625 C10.36550781 8.09980469 11.04742187 8.78945313 11.75 9.5 C12.44738281 10.18964844 13.14476562 10.87929688 13.86328125 11.58984375 C14.52199219 12.25113281 15.18070313 12.91242187 15.859375 13.59375 C16.46233398 14.19896484 17.06529297 14.80417969 17.68652344 15.42773438 C19 17 19 17 19 19 C19.66 19 20.32 19 21 19 C22.30688477 20.33251953 22.30688477 20.33251953 23.87890625 22.2578125 C26.99629014 25.92560823 30.2889369 29.36447847 33.71484375 32.7421875 C34.21915924 33.24083313 34.72347473 33.73947876 35.24307251 34.25323486 C37.34388848 36.32700525 39.44887111 38.39645732 41.55786133 40.46191406 C43.11449651 41.98853669 44.66500464 43.52117047 46.21484375 45.0546875 C47.13386475 45.95687012 48.05288574 46.85905273 48.99975586 47.78857422 C51 50 51 50 51 52 C49.42578125 53.5859375 49.42578125 53.5859375 47.3125 55.375 C46.22388672 56.30119141 46.22388672 56.30119141 45.11328125 57.24609375 C42.76550888 59.19461463 40.40435225 61.1215998 38 63 C37.67 62.01 37.34 61.02 37 60 C35.515 59.505 35.515 59.505 34 59 C34 58.34 34 57.68 34 57 C33.01 56.67 32.02 56.34 31 56 C31 55.34 31 54.68 31 54 C30.01 53.67 29.02 53.34 28 53 C28 52.34 28 51.68 28 51 C27.01 50.67 26.02 50.34 25 50 C25 49.34 25 48.68 25 48 C24.01 47.67 23.02 47.34 22 47 C22 46.34 22 45.68 22 45 C21.01 44.67 20.02 44.34 19 44 C19 43.34 19 42.68 19 42 C18.01 41.67 17.02 41.34 16 41 C16 40.34 16 39.68 16 39 C15.01 38.67 14.02 38.34 13 38 C13 37.34 13 36.68 13 36 C12.01 35.67 11.02 35.34 10 35 C10 34.34 10 33.68 10 33 C9.01 32.67 8.02 32.34 7 32 C7 31.34 7 30.68 7 30 C6.01 29.67 5.02 29.34 4 29 C4 28.34 4 27.68 4 27 C2.68 26.34 1.36 25.68 0 25 C-10.00698126 38.77365398 -14.03468511 55.41407108 -11.50390625 72.3125 C-9.14645695 83.3938436 -5.38174725 93.32878298 2 102 C2.77923828 102.9590625 2.77923828 102.9590625 3.57421875 103.9375 C6.17919357 107.08709173 8.68904504 109.58045599 12 112 C12 112.66 12 113.32 12 114 C11.34 114 10.68 114 10 114 C9.505 115.485 9.505 115.485 9 117 C8.34 117 7.68 117 7 117 C6.731875 117.598125 6.46375 118.19625 6.1875 118.8125 C5.01506533 120.97224808 3.80630718 122.35790256 2 124 C-2.76560621 122.59835111 -5.95882443 119.84588526 -9 116 C-9 115.34 -9 114.68 -9 114 C-9.66 114 -10.32 114 -11 114 C-25.25668716 95.2070942 -30.9921981 75.45114639 -29 52 C-28.22341656 46.48345909 -26.75188822 41.2787919 -25 36 C-24.66097656 34.95714844 -24.32195313 33.91429687 -23.97265625 32.83984375 C-19.14845029 19.80933726 -10.08494511 9.31248123 0 0 Z " fill="#E9004E" transform="translate(41,39)"/>
<path d="M0 0 C11.09438178 5.41818645 18.13325121 19.34777496 23.015625 29.984375 C23.325 30.63921875 23.634375 31.2940625 23.953125 31.96875 C31.55338575 49.86103051 30.97608544 72.0564691 24.328125 90.109375 C22.44554137 94.37802394 20.21342938 98.46855561 17.953125 102.546875 C17.6125708 103.16771973 17.2720166 103.78856445 16.92114258 104.42822266 C14.37435777 108.86479741 14.37435777 108.86479741 11.015625 109.984375 C11.015625 110.974375 11.015625 111.964375 11.015625 112.984375 C9.3759529 114.35076842 7.70452372 115.6793169 6.015625 116.984375 C5.335 117.87125 4.654375 118.758125 3.953125 119.671875 C2.015625 121.984375 2.015625 121.984375 0.078125 123.046875 C-3.22351386 122.94682534 -4.6423026 121.20934378 -6.984375 118.984375 C-8.31770833 117.31770833 -9.65104167 115.65104167 -10.984375 113.984375 C-11.768125 113.365625 -12.551875 112.746875 -13.359375 112.109375 C-16.68918943 109.41381094 -19.28111617 106.29145453 -21.984375 102.984375 C-20.44793648 99.30367613 -18.20286555 96.99662296 -15.359375 94.234375 C-14.54210937 93.43515625 -13.72484375 92.6359375 -12.8828125 91.8125 C-12.25632813 91.20921875 -11.62984375 90.6059375 -10.984375 89.984375 C-7.99217232 91.34807799 -5.69410971 92.93345583 -3.234375 95.109375 C-2.62078125 95.64820313 -2.0071875 96.18703125 -1.375 96.7421875 C-0.91609375 97.15210938 -0.4571875 97.56203125 0.015625 97.984375 C9.57352392 85.08121146 13.81745884 69.48459724 11.515625 53.515625 C9.51935282 42.35464871 6.5183399 32.30247793 -0.84765625 23.5078125 C-1.984375 21.984375 -1.984375 21.984375 -1.984375 19.984375 C-2.644375 19.984375 -3.304375 19.984375 -3.984375 19.984375 C-5.32860839 18.32648715 -6.66055983 16.65861183 -7.984375 14.984375 C-10.11040685 13.22113995 -10.11040685 13.22113995 -11.984375 11.984375 C-10.51811644 8.63616602 -8.64779053 6.29171141 -6.109375 3.671875 C-5.09230469 2.59486328 -5.09230469 2.59486328 -4.0546875 1.49609375 C-1.984375 -0.015625 -1.984375 -0.015625 0 0 Z " fill="#E9004E" transform="translate(141.984375,40.015625)"/>
</svg>
